<?xml version="1.0" encoding="utf-8"?>
<!-- Generator: Adobe Illustrator 19.0.0, SVG Export Plug-In . SVG Version: 6.00 Build 0)  -->
<svg version="1.1" id="Icons" xmlns="http://www.w3.org/2000/svg" xmlns:xlink="http://www.w3.org/1999/xlink" x="0px" y="0px"
	 viewBox="-79 -120 800 800" style="enable-background:new -79 -120 800 800;" xml:space="preserve">
<path d="M496-120H146C21-120-79-20-79,105v350c0,125,100,225,225,225h350c125,0,225-100,225-225V105C721-20,621-120,496-120z
	 M252.1,513.9c-15.4,7.3-34.2,11-56.5,11c-61.5,0-110.6-23-147.3-69S-6.9,345.6-6.9,263c0-92.4,27.1-162.2,81.2-209.5
	c35.1-30.4,74.6-45.6,118.5-45.6c20.1,0,39.9,3.3,59.3,9.7v64.9c-12.5-3.7-24.5-5.6-35.8-5.6c-22.4,0-41.5,7.9-57.3,23.7
	c-27.2,27.4-40.8,78.8-40.8,154c0,79.4,9.1,132.1,27.3,158.2c18.2,26.1,42.4,39.1,72.5,39.1c11.4,0,22.8-2.1,34.2-6.2V513.9z
	 M299.6,11.9h123.1l43.4,293.8l36-293.8h122.5l-107.2,513H415.9L299.6,11.9z"/>
</svg>
